<?xml version="1.0" encoding="utf-8"?>
<!-- Generator: Adobe Illustrator 21.1.0, SVG Export Plug-In . SVG Version: 6.00 Build 0)  -->
<svg version="1.1" id="Layer_1" xmlns="http://www.w3.org/2000/svg" xmlns:xlink="http://www.w3.org/1999/xlink" x="0px" y="0px"
	 viewBox="0 0 230 70" style="enable-background:new 0 0 230 70;" xml:space="preserve">
<style type="text/css">
	.st0{fill:url(#SVGID_1_);}
	.st1{fill:url(#SVGID_2_);}
	.st2{fill:url(#SVGID_3_);}
	.st3{fill:url(#SVGID_4_);}
	.st4{fill:url(#SVGID_5_);}
	.st5{fill-rule:evenodd;clip-rule:evenodd;fill:#EE3E42;}
	.st6{fill-rule:evenodd;clip-rule:evenodd;fill:#807F82;}
</style>
<g>
	<g>
		<g>
			
				<linearGradient id="SVGID_1_" gradientUnits="userSpaceOnUse" x1="1.4314" y1="23.0771" x2="133.0634" y2="23.0771" gradientTransform="matrix(1 0 0 1 1 1)">
				<stop  offset="0" style="stop-color:#4274B8"/>
				<stop  offset="6.574737e-02" style="stop-color:#4185C5"/>
				<stop  offset="0.1396" style="stop-color:#4090CD"/>
				<stop  offset="0.2185" style="stop-color:#4094D0"/>
				<stop  offset="0.5306" style="stop-color:#34BCDF"/>
				<stop  offset="0.8876" style="stop-color:#59C5CD"/>
				<stop  offset="1" style="stop-color:#6BC8C6"/>
			</linearGradient>
			<path class="st0" d="M18.2,20.6c-3.9,0-6.5,0.5-8,1.6c-1.1,0.8-1.6,2-1.6,3.7v20.2H2.4V25.9c0-7.7,5.3-11.5,15.8-11.5V20.6z"/>
			
				<linearGradient id="SVGID_2_" gradientUnits="userSpaceOnUse" x1="1.4314" y1="23.0771" x2="133.0634" y2="23.0771" gradientTransform="matrix(1 0 0 1 1 1)">
				<stop  offset="0" style="stop-color:#4274B8"/>
				<stop  offset="6.574737e-02" style="stop-color:#4185C5"/>
				<stop  offset="0.1396" style="stop-color:#4090CD"/>
				<stop  offset="0.2185" style="stop-color:#4094D0"/>
				<stop  offset="0.5306" style="stop-color:#34BCDF"/>
				<stop  offset="0.8876" style="stop-color:#59C5CD"/>
				<stop  offset="1" style="stop-color:#6BC8C6"/>
			</linearGradient>
			<path class="st1" d="M43.2,30.3c0-3.2-0.5-5.5-1.6-7c-1.3-1.8-3.6-2.7-6.9-2.7c-3.3,0-5.6,0.9-6.9,2.7c-1.1,1.4-1.6,3.8-1.6,7
				c0,3.2,0.5,5.5,1.6,7c1.3,1.8,3.6,2.6,6.9,2.6c3.3,0,5.6-0.9,6.9-2.6C42.7,35.8,43.2,33.5,43.2,30.3z M49.5,30.3
				c0,10.5-4.9,15.8-14.7,15.8c-9.9,0-14.8-5.3-14.8-15.8c0-10.6,4.9-15.9,14.8-15.9C44.5,14.4,49.5,19.7,49.5,30.3z"/>
			
				<linearGradient id="SVGID_3_" gradientUnits="userSpaceOnUse" x1="1.4314" y1="23.0771" x2="133.0634" y2="23.0771" gradientTransform="matrix(1 0 0 1 1 1)">
				<stop  offset="0" style="stop-color:#4274B8"/>
				<stop  offset="6.574737e-02" style="stop-color:#4185C5"/>
				<stop  offset="0.1396" style="stop-color:#4090CD"/>
				<stop  offset="0.2185" style="stop-color:#4094D0"/>
				<stop  offset="0.5306" style="stop-color:#34BCDF"/>
				<stop  offset="0.8876" style="stop-color:#59C5CD"/>
				<stop  offset="1" style="stop-color:#6BC8C6"/>
			</linearGradient>
			<path class="st2" d="M76.4,30.3c0-3.2-0.5-5.5-1.6-7c-1.4-1.8-3.7-2.7-7-2.7h-8.5v9.7c0,3.2,0.5,5.5,1.6,6.9
				c1.3,1.8,3.6,2.7,6.9,2.7c3.3,0,5.6-0.9,7-2.7C75.8,35.8,76.4,33.5,76.4,30.3z M82.6,30.3c0,10.5-4.9,15.8-14.8,15.8
				c-9.8,0-14.7-5.3-14.7-15.8V2h6.2v12.4h8.5C77.6,14.4,82.6,19.7,82.6,30.3z"/>
			
				<linearGradient id="SVGID_4_" gradientUnits="userSpaceOnUse" x1="1.4314" y1="23.0771" x2="133.0634" y2="23.0771" gradientTransform="matrix(1 0 0 1 1 1)">
				<stop  offset="0" style="stop-color:#4274B8"/>
				<stop  offset="6.574737e-02" style="stop-color:#4185C5"/>
				<stop  offset="0.1396" style="stop-color:#4090CD"/>
				<stop  offset="0.2185" style="stop-color:#4094D0"/>
				<stop  offset="0.5306" style="stop-color:#34BCDF"/>
				<stop  offset="0.8876" style="stop-color:#59C5CD"/>
				<stop  offset="1" style="stop-color:#6BC8C6"/>
			</linearGradient>
			<path class="st3" d="M108,30.3c0-3.2-0.5-5.5-1.6-7c-1.3-1.8-3.6-2.7-6.9-2.7c-3.3,0-5.6,0.9-6.9,2.7c-1.1,1.4-1.6,3.8-1.6,7
				c0,3.2,0.5,5.5,1.6,7c1.3,1.8,3.6,2.6,6.9,2.6c3.3,0,5.6-0.9,6.9-2.6C107.5,35.8,108,33.5,108,30.3z M114.2,30.3
				c0,10.5-4.9,15.8-14.7,15.8c-9.9,0-14.8-5.3-14.8-15.8c0-10.6,4.9-15.9,14.8-15.9C109.3,14.4,114.2,19.7,114.2,30.3z"/>
			
				<linearGradient id="SVGID_5_" gradientUnits="userSpaceOnUse" x1="1.4314" y1="23.0771" x2="133.0634" y2="23.0771" gradientTransform="matrix(1 0 0 1 1 1)">
				<stop  offset="0" style="stop-color:#4274B8"/>
				<stop  offset="6.574737e-02" style="stop-color:#4185C5"/>
				<stop  offset="0.1396" style="stop-color:#4090CD"/>
				<stop  offset="0.2185" style="stop-color:#4094D0"/>
				<stop  offset="0.5306" style="stop-color:#34BCDF"/>
				<stop  offset="0.8876" style="stop-color:#59C5CD"/>
				<stop  offset="1" style="stop-color:#6BC8C6"/>
			</linearGradient>
			<path class="st4" d="M134.1,46.2c-10.5,0-15.8-3.8-15.8-11.5V2h6.2v12.5h9.6v6.2h-9.6v14c0,1.7,0.5,2.9,1.6,3.7
				c1.5,1.1,4.1,1.6,8,1.6V46.2z"/>
		</g>
	</g>
	<path class="st5" d="M160.6,30.3c0-3.2-0.5-5.5-1.6-7c-1.4-1.8-3.7-2.7-7-2.7c-3.3,0-5.6,0.9-6.9,2.7c-1.1,1.4-1.6,3.8-1.6,7v9.6
		h8.5c3.3,0,5.6-0.9,7-2.6C160.1,35.8,160.6,33.5,160.6,30.3z M166.8,30.3c0,10.5-4.9,15.8-14.8,15.8h-8.5v12.5h-6.2V30.3
		c0-10.6,4.9-15.9,14.7-15.9C161.9,14.4,166.8,19.7,166.8,30.3z"/>
	<path class="st5" d="M193.2,30.3c0-3.2-0.5-5.5-1.6-7c-1.3-1.8-3.6-2.7-6.9-2.7c-3.3,0-5.6,0.9-6.9,2.7c-1.1,1.4-1.6,3.8-1.6,7
		c0,3.2,0.5,5.5,1.6,7c1.3,1.8,3.6,2.6,6.9,2.6c3.3,0,5.6-0.9,6.9-2.6C192.7,35.8,193.2,33.5,193.2,30.3z M199.4,30.3
		c0,10.5-4.9,15.8-14.7,15.8c-9.9,0-14.8-5.3-14.8-15.8c0-10.6,4.9-15.9,14.8-15.9C194.5,14.4,199.4,19.7,199.4,30.3z"/>
	<path class="st5" d="M229,23.9h-6.2c0-1-0.3-1.6-0.8-2.1c-1-0.8-2.9-1.2-5.7-1.2c-2.9,0-4.8,0.4-5.7,1.2c-0.6,0.4-0.8,1.1-0.8,2.1
		c0,1.2,0.4,2,1.1,2.4c0.8,0.4,2.7,0.7,5.7,0.9c3.6,0.2,6.3,0.8,8.1,1.6c3,1.5,4.5,4.1,4.5,7.9c0,6.3-4.3,9.5-12.8,9.5
		c-8.5,0-12.8-3.2-12.8-9.5h6.2c0,1,0.3,1.7,0.8,2.1c1,0.8,2.9,1.2,5.7,1.2c2.9,0,4.8-0.4,5.7-1.2c0.6-0.4,0.8-1.1,0.8-2.1
		c0-1.2-0.4-1.9-1.1-2.3c-0.8-0.4-2.7-0.8-5.7-1c-3.7-0.2-6.3-0.8-8.1-1.6c-3-1.5-4.5-4.1-4.5-7.9c0-6.3,4.3-9.5,12.8-9.5
		C224.7,14.4,229,17.6,229,23.9z"/>
	<path class="st6" d="M9.3,63.9v-1.6c-0.7,0.2-1.6,0.4-2.6,0.4c-1.1,0-1.8,0.1-2.2,0.4c-0.2,0.2-0.3,0.4-0.3,0.8
		c0,0.4,0.1,0.6,0.3,0.8c0.4,0.3,1.1,0.5,2.2,0.5c1.1,0,1.9-0.2,2.2-0.5C9.2,64.6,9.3,64.3,9.3,63.9z M11.7,63.9
		c0,2.4-1.7,3.7-5,3.7c-1.9,0-3.3-0.4-4.1-1.3c-0.6-0.6-0.9-1.4-0.9-2.4c0-1,0.3-1.7,0.9-2.4c0.8-0.9,2.2-1.3,4.1-1.3
		c1.1,0,1.9-0.2,2.2-0.5c0.2-0.2,0.3-0.4,0.3-0.8c0-0.4-0.1-0.6-0.3-0.8c-0.4-0.3-1.1-0.5-2.2-0.5c-1.1,0-1.8,0.2-2.2,0.5
		c-0.2,0.2-0.3,0.4-0.3,0.8H1.8c0-1,0.3-1.7,0.9-2.4c0.8-0.9,2.2-1.3,4.1-1.3c3.3,0,5,1.2,5,3.7V63.9z"/>
	<path class="st6" d="M26.8,61.5c0,4.1-1.9,6.1-5.7,6.1c-3.8,0-5.7-2-5.7-6.1v-6.1h2.4v6.1c0,1.2,0.2,2.1,0.6,2.7
		c0.5,0.7,1.4,1,2.7,1c1.3,0,2.2-0.3,2.7-1c0.4-0.6,0.6-1.5,0.6-2.7v-6.1h2.4V61.5z"/>
	<path class="st6" d="M36.5,67.6c-4.1,0-6.1-1.5-6.1-4.5V50.5h2.4v4.8h3.7v2.4h-3.7v5.4c0,0.6,0.2,1.1,0.6,1.4
		c0.6,0.4,1.6,0.6,3.1,0.6V67.6z"/>
	<path class="st6" d="M48.5,61.5c0-1.2-0.2-2.1-0.6-2.7c-0.5-0.7-1.4-1-2.7-1c-1.3,0-2.2,0.3-2.7,1c-0.4,0.6-0.6,1.5-0.6,2.7
		c0,1.2,0.2,2.1,0.6,2.7c0.5,0.7,1.4,1,2.7,1c1.3,0,2.2-0.3,2.7-1C48.3,63.6,48.5,62.7,48.5,61.5z M50.9,61.5c0,4.1-1.9,6.1-5.7,6.1
		c-3.8,0-5.7-2-5.7-6.1c0-4.1,1.9-6.1,5.7-6.1C49,55.3,50.9,57.4,50.9,61.5z"/>
	<path class="st6" d="M74.9,67.6h-2.4v-6.1c0-1.2-0.2-2.1-0.6-2.7c-0.5-0.7-1.4-1-2.7-1c-1.3,0-2.2,0.3-2.7,1
		c-0.4,0.6-0.6,1.5-0.6,2.7v6.1h-2.4v-6.1c0-1.2-0.2-2.1-0.6-2.7c-0.5-0.7-1.4-1-2.7-1c-1.3,0-2.2,0.3-2.7,1
		c-0.4,0.6-0.6,1.5-0.6,2.7v6.1h-2.4v-6.1c0-4.1,1.9-6.1,5.7-6.1c2,0,3.5,0.6,4.5,1.9c1-1.2,2.5-1.9,4.5-1.9c3.8,0,5.7,2,5.7,6.1
		V67.6z"/>
	<path class="st6" d="M86,63.9v-1.6c-0.7,0.2-1.6,0.4-2.6,0.4c-1.1,0-1.8,0.1-2.2,0.4c-0.2,0.2-0.3,0.4-0.3,0.8
		c0,0.4,0.1,0.6,0.3,0.8c0.4,0.3,1.1,0.5,2.2,0.5c1.1,0,1.9-0.2,2.2-0.5C85.9,64.6,86,64.3,86,63.9z M88.4,63.9c0,2.4-1.7,3.7-5,3.7
		c-1.9,0-3.3-0.4-4.1-1.3c-0.6-0.6-0.9-1.4-0.9-2.4c0-1,0.3-1.7,0.9-2.4c0.8-0.9,2.2-1.3,4.1-1.3c1.1,0,1.9-0.2,2.2-0.5
		c0.2-0.2,0.3-0.4,0.3-0.8c0-0.4-0.1-0.6-0.3-0.8c-0.4-0.3-1.1-0.5-2.2-0.5c-1.1,0-1.8,0.2-2.2,0.5c-0.2,0.2-0.3,0.4-0.3,0.8h-2.4
		c0-1,0.3-1.7,0.9-2.4c0.8-0.9,2.2-1.3,4.1-1.3c3.3,0,5,1.2,5,3.7V63.9z"/>
	<path class="st6" d="M98.1,67.6c-4.1,0-6.1-1.5-6.1-4.5V50.5h2.4v4.8h3.7v2.4h-3.7v5.4c0,0.6,0.2,1.1,0.6,1.4
		c0.6,0.4,1.6,0.6,3.1,0.6V67.6z"/>
	<path class="st6" d="M101.3,55.3h2.4v12.3h-2.4V55.3z M103.7,52.9h-2.4v-2.4h2.4V52.9z"/>
	<path class="st6" d="M116.1,61.5c0-1.2-0.2-2.1-0.6-2.7c-0.5-0.7-1.4-1-2.7-1c-1.3,0-2.2,0.3-2.7,1c-0.4,0.6-0.6,1.5-0.6,2.7
		c0,1.2,0.2,2.1,0.6,2.7c0.5,0.7,1.4,1,2.7,1c1.3,0,2.2-0.3,2.7-1C115.8,63.6,116.1,62.7,116.1,61.5z M118.5,61.5
		c0,4.1-1.9,6.1-5.7,6.1c-3.8,0-5.7-2-5.7-6.1c0-4.1,1.9-6.1,5.7-6.1C116.6,55.3,118.5,57.4,118.5,61.5z"/>
	<path class="st6" d="M133.4,67.6H131v-6.1c0-1.2-0.2-2.1-0.6-2.7c-0.5-0.7-1.4-1-2.7-1c-1.3,0-2.2,0.3-2.7,1
		c-0.4,0.6-0.6,1.5-0.6,2.7v6.1H122v-6.1c0-4.1,1.9-6.1,5.7-6.1c3.8,0,5.7,2,5.7,6.1V67.6z"/>
</g>
</svg>
